<svg xmlns="http://www.w3.org/2000/svg" viewBox="0 0 960 720" role="img" aria-labelledby="title desc">
  <title id="title">SSP Tone</title>
  <desc id="desc">Temporary category artwork for SSP tone products.</desc>
  <defs>
    <linearGradient id="bg" x1="0%" y1="0%" x2="100%" y2="100%">
      <stop offset="0%" stop-color="#ffc0a7" />
      <stop offset="100%" stop-color="#ff7448" />
    </linearGradient>
  </defs>
  <rect width="960" height="720" fill="#101216" />
  <rect x="40" y="40" width="880" height="640" rx="28" fill="url(#bg)" stroke="#101216" stroke-width="10" />
  <rect x="92" y="112" width="776" height="496" rx="24" fill="#1a1210" stroke="#101216" stroke-width="8" />
  <path d="M156 470c80-30 128-40 202-118 62-66 112-126 188-126 78 0 126 72 182 126 48 48 96 84 150 112" fill="none" stroke="#ffd6c7" stroke-width="18" stroke-linecap="round" stroke-linejoin="round" />
  <path d="M156 512c118 0 204-82 316-82s160 52 248 52 94-18 160-54" fill="none" stroke="#ff7448" stroke-width="12" stroke-linecap="round" stroke-linejoin="round" />
  <rect x="156" y="188" width="196" height="44" rx="10" fill="#ffd6c7" />
  <text x="181" y="219" fill="#101216" font-family="Arial, sans-serif" font-size="24" font-weight="700">SSP CATEGORY</text>
  <text x="156" y="590" fill="#fffdf8" font-family="Arial, sans-serif" font-size="104" font-weight="700">TONE</text>
</svg>
